<svg width="24" height="24" viewBox="0 0 24 24" fill="none" xmlns="http://www.w3.org/2000/svg">
<path d="M23.6457 12.0908C23.6457 5.71582 18.3957 0.46582 12.0207 0.46582C5.59885 0.46582 0.395725 5.71582 0.395725 12.0908C0.395725 18.5127 5.59885 23.7158 12.0207 23.7158C18.3957 23.7158 23.6457 18.5127 23.6457 12.0908ZM10.6614 18.2783C10.3801 18.5596 9.86448 18.5596 9.58323 18.2783L4.70823 13.4033C4.42698 13.1221 4.42698 12.6064 4.70823 12.3252L5.78635 11.2939C6.0676 10.9658 6.53635 10.9658 6.8176 11.2939L10.1457 14.5752L17.177 7.54395C17.4582 7.21582 17.927 7.21582 18.2082 7.54395L19.2864 8.5752C19.5676 8.85645 19.5676 9.37207 19.2864 9.65332L10.6614 18.2783Z" fill="#778DA9"/>
</svg>
