<svg width="24" height="18" viewBox="0 0 24 18" fill="none" xmlns="http://www.w3.org/2000/svg">
<path d="M18.5625 13.5H19.6406C19.9219 13.5 20.25 13.2188 20.25 12.9375V2.10938C20.25 1.82812 19.9219 1.5 19.6406 1.5H18.5625C18.2812 1.5 18 1.82812 18 2.10938V12.9375C18 13.2188 18.2812 13.5 18.5625 13.5ZM9.5625 13.5H10.6406C10.9219 13.5 11.25 13.2188 11.25 12.9375V3.60938C11.25 3.32812 10.9219 3 10.6406 3H9.5625C9.28125 3 9 3.32812 9 3.60938V12.9375C9 13.2188 9.28125 13.5 9.5625 13.5ZM14.0625 13.5H15.1406C15.4219 13.5 15.75 13.2188 15.75 12.9375V6.60938C15.75 6.32812 15.4219 6 15.1406 6H14.0625C13.7812 6 13.5 6.32812 13.5 6.60938V12.9375C13.5 13.2188 13.7812 13.5 14.0625 13.5ZM23.25 15.75H2.25V0.75C2.25 0.375 1.875 0 1.5 0H0.75C0.328125 0 0 0.375 0 0.75V16.5C0 17.3438 0.65625 18 1.5 18H23.25C23.625 18 24 17.6719 24 17.25V16.5C24 16.125 23.625 15.75 23.25 15.75ZM5.0625 13.5H6.14062C6.42188 13.5 6.75 13.2188 6.75 12.9375V9.60938C6.75 9.32812 6.42188 9 6.14062 9H5.0625C4.78125 9 4.5 9.32812 4.5 9.60938V12.9375C4.5 13.2188 4.78125 13.5 5.0625 13.5Z" fill="#778DA9"/>
</svg>
