<svg width="24" height="24" viewBox="0 0 24 24" fill="none" xmlns="http://www.w3.org/2000/svg">
<path d="M23.625 12.0908C23.625 5.71582 18.375 0.46582 12 0.46582C5.57812 0.46582 0.375 5.71582 0.375 12.0908C0.375 18.5127 5.57812 23.7158 12 23.7158C18.375 23.7158 23.625 18.5127 23.625 12.0908ZM10.6406 18.2783C10.3594 18.5596 9.84375 18.5596 9.5625 18.2783L4.6875 13.4033C4.40625 13.1221 4.40625 12.6064 4.6875 12.3252L5.76562 11.2939C6.04688 10.9658 6.51562 10.9658 6.79688 11.2939L10.125 14.5752L17.1562 7.54395C17.4375 7.21582 17.9062 7.21582 18.1875 7.54395L19.2656 8.5752C19.5469 8.85645 19.5469 9.37207 19.2656 9.65332L10.6406 18.2783Z" fill="#F49E4C"/>
</svg>
