<svg width="25" height="25" viewBox="0 0 25 25" fill="none" xmlns="http://www.w3.org/2000/svg">
<path d="M24.2969 6.70312C25.1875 5.8125 25.1875 4.35938 24.2969 3.51562L21.4844 0.703125C20.6406 -0.1875 19.1875 -0.1875 18.2969 0.703125L16.1406 2.85938C15.9531 3.04688 15.9531 3.42188 16.1406 3.65625L21.3438 8.85938C21.5781 9.04688 21.9531 9.04688 22.1406 8.85938L24.2969 6.70312ZM14.3125 4.6875L1.98438 17.0156L1 22.6875C0.859375 23.4844 1.51562 24.1406 2.3125 24L7.98438 23.0156L20.3125 10.6875C20.5469 10.5 20.5469 10.125 20.3125 9.89062L15.1094 4.6875C14.875 4.5 14.5 4.5 14.3125 4.6875ZM6.8125 15.9375C6.53125 15.7031 6.53125 15.2812 6.8125 15.0469L14.0312 7.82812C14.2656 7.54688 14.6875 7.54688 14.9219 7.82812C15.2031 8.0625 15.2031 8.48438 14.9219 8.71875L7.70312 15.9375C7.46875 16.2188 7.04688 16.2188 6.8125 15.9375ZM5.125 19.875H7.375V21.6094L4.32812 22.125L2.875 20.6719L3.39062 17.625H5.125V19.875Z" fill="#778DA9"/>
</svg>
