<svg width="18" height="24" viewBox="0 0 18 24" fill="none" xmlns="http://www.w3.org/2000/svg">
<path d="M15.75 3H12C12 1.35938 10.6406 0 9 0C7.3125 0 6 1.35938 6 3H2.25C0.984375 3 0 4.03125 0 5.25V21.75C0 23.0156 0.984375 24 2.25 24H15.75C16.9688 24 18 23.0156 18 21.75V5.25C18 4.03125 16.9688 3 15.75 3ZM9 1.875C9.60938 1.875 10.125 2.39062 10.125 3C10.125 3.65625 9.60938 4.125 9 4.125C8.34375 4.125 7.875 3.65625 7.875 3C7.875 2.39062 8.34375 1.875 9 1.875ZM15.75 21.4688C15.75 21.6562 15.6094 21.75 15.4688 21.75H2.53125C2.34375 21.75 2.25 21.6562 2.25 21.4688V5.53125C2.25 5.39062 2.34375 5.25 2.53125 5.25H4.5V6.9375C4.5 7.26562 4.73438 7.5 5.0625 7.5H12.9375C13.2188 7.5 13.5 7.26562 13.5 6.9375V5.25H15.4688C15.6094 5.25 15.75 5.39062 15.75 5.53125V21.4688Z" fill="#778DA9"/>
</svg>
