<svg width="36" height="37" viewBox="0 0 36 37" fill="none" xmlns="http://www.w3.org/2000/svg">
<path d="M18 29.75C26.0156 29.75 32.625 23.2109 32.625 15.125C32.625 7.10938 26.0156 0.5 18 0.5C9.91406 0.5 3.375 7.10938 3.375 15.125C3.375 23.2109 9.91406 29.75 18 29.75ZM16.3828 7.39062V6.19531C16.3828 5.5625 16.9453 5 17.5781 5H18.3516C18.9844 5 19.5469 5.5625 19.5469 6.19531V7.39062C20.6016 7.46094 21.6562 7.8125 22.5703 8.44531C22.9219 8.79688 22.9922 9.35938 22.6406 9.71094L21.5156 10.7656C21.2344 11.0469 20.8125 11.0469 20.5312 10.8359C20.1094 10.625 19.6875 10.4844 19.2656 10.4844H16.5234C15.8906 10.4844 15.3984 11.0469 15.3984 11.75C15.3984 12.3125 15.75 12.875 16.2422 13.0156L20.6016 14.3516C22.4297 14.8438 23.6953 16.6016 23.6953 18.5703C23.6953 20.9609 21.7969 22.8594 19.5469 22.9297V24.125C19.5469 24.7578 18.9844 25.25 18.3516 25.25H17.5781C16.9453 25.25 16.3828 24.7578 16.3828 24.125V22.9297C15.3281 22.8594 14.2734 22.5078 13.3594 21.8047C13.0078 21.5234 12.9375 20.9609 13.2891 20.6094L14.4141 19.5547C14.6953 19.2734 15.1172 19.2734 15.3984 19.4844C15.8203 19.6953 16.2422 19.8359 16.6641 19.8359H19.4062C20.0391 19.8359 20.5312 19.2734 20.5312 18.5703C20.5312 17.9375 20.1797 17.4453 19.6875 17.3047L15.3281 15.9688C13.5 15.4766 12.2344 13.7188 12.2344 11.75C12.2344 9.35938 14.1328 7.46094 16.3828 7.39062ZM33.75 25.25H31.4297C30.0234 27.0781 28.2656 28.625 26.2969 29.75H30.7969C31.1484 29.75 31.4297 30.0312 31.4297 30.3125V31.4375C31.4297 31.7891 31.1484 32 30.7969 32H5.13281C4.78125 32 4.5 31.7891 4.5 31.4375V30.3125C4.5 30.0312 4.78125 29.75 5.13281 29.75H9.63281C7.66406 28.625 5.90625 27.0781 4.5 25.25H2.25C0.984375 25.25 0 26.3047 0 27.5V34.25C0 35.5156 0.984375 36.5 2.25 36.5H33.75C34.9453 36.5 36 35.5156 36 34.25V27.5C36 26.3047 34.9453 25.25 33.75 25.25Z" fill="#F49E4C"/>
</svg>
