<svg width="21" height="22" viewBox="0 0 21 22" fill="none" xmlns="http://www.w3.org/2000/svg">
<path d="M18.75 0.5H2.25C0.984375 0.5 0 1.53125 0 2.75V19.25C0 20.5156 0.984375 21.5 2.25 21.5H8.67188V14.375H5.71875V11H8.67188V8.46875C8.67188 5.5625 10.4062 3.92188 13.0312 3.92188C14.3438 3.92188 15.6562 4.15625 15.6562 4.15625V7.01562H14.2031C12.75 7.01562 12.2812 7.90625 12.2812 8.84375V11H15.5156L15 14.375H12.2812V21.5H18.75C19.9688 21.5 21 20.5156 21 19.25V2.75C21 1.53125 19.9688 0.5 18.75 0.5Z" fill="white"/>
</svg>
