<svg width="21" height="22" viewBox="0 0 21 22" fill="none" xmlns="http://www.w3.org/2000/svg">
<path d="M10.5 8.51562C9.09375 8.51562 7.96875 9.64062 7.96875 11C7.96875 12.4062 9.09375 13.5312 10.5 13.5312C11.8594 13.5312 12.9844 12.4062 12.9844 11C12.9844 9.64062 11.8594 8.51562 10.5 8.51562ZM16.3125 6.59375C16.0781 5.9375 15.5625 5.42188 14.9062 5.1875C13.9219 4.76562 11.5781 4.85938 10.5 4.85938C9.375 4.85938 7.03125 4.76562 6.04688 5.1875C5.39062 5.42188 4.875 5.9375 4.64062 6.59375C4.26562 7.57812 4.3125 9.92188 4.3125 11C4.3125 12.125 4.26562 14.4688 4.64062 15.4531C4.875 16.1094 5.39062 16.625 6.04688 16.8594C7.03125 17.2812 9.375 17.1875 10.5 17.1875C11.5781 17.1875 13.9219 17.2812 14.9062 16.8594C15.5625 16.625 16.0781 16.1094 16.3125 15.4531C16.7344 14.4688 16.6406 12.125 16.6406 11C16.6406 9.92188 16.7344 7.57812 16.3125 6.59375ZM10.5 14.8438C8.34375 14.8438 6.65625 13.1562 6.65625 11C6.65625 8.89062 8.34375 7.15625 10.5 7.15625C12.6094 7.15625 14.3438 8.89062 14.3438 11V11.0469C14.3438 13.1562 12.6094 14.8906 10.5 14.8906V14.8438ZM14.4844 7.90625C13.9688 7.90625 13.5938 7.53125 13.5938 7.01562C13.5938 6.5 13.9688 6.125 14.4844 6.125C14.9531 6.125 15.375 6.5 15.375 7.01562C15.375 7.53125 14.9531 7.90625 14.4844 7.90625ZM18.75 0.5H2.25C0.984375 0.5 0 1.53125 0 2.75V19.25C0 20.5156 0.984375 21.5 2.25 21.5H18.75C19.9688 21.5 21 20.5156 21 19.25V2.75C21 1.53125 19.9688 0.5 18.75 0.5ZM17.9062 14.0938C17.8594 15.3125 17.5781 16.3906 16.7344 17.2344C15.8438 18.125 14.7656 18.4062 13.5938 18.4531C12.3281 18.5469 8.625 18.5469 7.40625 18.4531C6.1875 18.4062 5.10938 18.125 4.26562 17.2344C3.375 16.3906 3.09375 15.3125 3.04688 14.0938C2.95312 12.875 2.95312 9.17188 3.04688 7.90625C3.09375 6.73438 3.375 5.65625 4.26562 4.76562C5.10938 3.92188 6.1875 3.64062 7.40625 3.59375C8.625 3.5 12.3281 3.5 13.5938 3.59375C14.7656 3.64062 15.8438 3.92188 16.7344 4.8125C17.5781 5.65625 17.8594 6.73438 17.9062 7.95312C18 9.17188 18 12.875 17.9062 14.0938Z" fill="white"/>
</svg>
