<svg width="21" height="22" viewBox="0 0 21 22" fill="none" xmlns="http://www.w3.org/2000/svg">
<path d="M12.75 8.60938C12.75 8.51562 12.6562 8.42188 12.5625 8.46875H12.0469C11.9531 8.46875 11.9062 8.51562 11.9062 8.60938V10.5781L10.3594 8.51562C10.3594 8.46875 10.3125 8.46875 10.2656 8.46875H9.70312C9.60938 8.46875 9.5625 8.51562 9.5625 8.60938V11.9375C9.5625 12.0312 9.60938 12.0781 9.70312 12.0781H10.2656C10.3125 12.0781 10.4062 12.0312 10.4062 11.9375V9.96875L11.9062 12.0312C11.9531 12.0312 12 12.0781 12.0469 12.0781H12.5625C12.6562 12.0781 12.75 12.0312 12.75 11.9375V8.60938ZM8.90625 8.42188H8.34375C8.25 8.42188 8.20312 8.51562 8.20312 8.60938V11.9375C8.20312 12.0312 8.25 12.0781 8.34375 12.0781H8.90625C8.95312 12.0781 9.04688 12.0312 9.04688 11.9375V8.60938C9.04688 8.51562 8.95312 8.42188 8.90625 8.42188ZM7.59375 11.2344H6.14062V8.60938C6.14062 8.51562 6.09375 8.42188 6 8.42188H5.4375C5.39062 8.42188 5.29688 8.51562 5.29688 8.60938V11.9375C5.29688 11.9844 5.34375 11.9844 5.34375 12.0312C5.39062 12.0312 5.39062 12.0781 5.4375 12.0781H7.59375C7.6875 12.0781 7.73438 11.9844 7.73438 11.9375V11.375C7.73438 11.3281 7.6875 11.2344 7.59375 11.2344ZM15.5625 8.42188H13.4062C13.3125 8.42188 13.2656 8.51562 13.2656 8.60938V11.9375C13.2656 11.9844 13.3125 12.0781 13.4062 12.0781H15.5625C15.6094 12.0781 15.7031 12.0312 15.7031 11.9375V11.375C15.7031 11.3281 15.6094 11.2344 15.5625 11.2344H14.1094V10.6719H15.5625C15.6094 10.6719 15.7031 10.625 15.7031 10.5312V9.96875C15.7031 9.92188 15.6094 9.82812 15.5625 9.82812H14.1094V9.26562H15.5625C15.6094 9.26562 15.7031 9.21875 15.7031 9.125V8.60938C15.7031 8.51562 15.6094 8.42188 15.5625 8.42188ZM21 4.34375C21 2.23438 19.2656 0.546875 17.2031 0.5H3.79688C1.6875 0.5 0 2.23438 0 4.29688V17.7031C-0.046875 19.8125 1.6875 21.5 3.79688 21.5H17.1562C19.2656 21.5469 20.9531 19.8125 21 17.7031V4.34375ZM18.0938 10.1094C18.0938 11.4688 17.5781 12.6875 16.4531 13.9062C14.8594 15.7812 11.25 18.0312 10.4531 18.3594C9.60938 18.6875 9.75 18.125 9.79688 17.9375C9.98438 16.7188 10.0781 16.3906 9.1875 16.2031C5.53125 15.7344 2.8125 13.1562 2.8125 10.1094C2.8125 6.6875 6.23438 3.875 10.4531 3.875C14.6719 3.875 18.0938 6.6875 18.0938 10.1094Z" fill="#38D576"/>
</svg>
