<svg width="30" height="41" viewBox="0 0 30 41" fill="none" xmlns="http://www.w3.org/2000/svg">
<path d="M13.5212 38.5365L13.5213 38.5364L13.5192 38.5335C11.6885 35.9425 10.0999 33.7245 8.72268 31.8017C5.8069 27.7307 3.83857 24.9826 2.52693 22.8184C1.56259 21.2273 0.956863 19.9575 0.591546 18.7148C0.226425 17.4728 0.1 16.253 0.1 14.76C0.1 6.66766 6.69468 0.1 15 0.1C23.2276 0.1 29.9 6.66799 29.9 14.76C29.9 16.2527 29.7687 17.4724 29.3964 18.7143C29.0238 19.957 28.4084 21.2268 27.4343 22.8181C26.1552 24.9073 24.2643 27.5406 21.5053 31.3828C20.0563 33.4008 18.3678 35.7522 16.4027 38.5335L16.4026 38.5334L16.4006 38.5365C15.737 39.5524 14.1849 39.5524 13.5212 38.5365ZM8.65 14.76C8.65 18.2762 11.4307 21.01 15 21.01C18.4904 21.01 21.35 18.277 21.35 14.76C21.35 11.3208 18.4912 8.51 15 8.51C11.4298 8.51 8.65 11.3216 8.65 14.76Z" fill="#124559" stroke="#071C24" stroke-width="0.2"/>
<path d="M15.0002 21.42C18.7358 21.42 21.7668 18.4397 21.7668 14.76C21.7668 11.0803 18.7358 8.1 15.0002 8.1C11.2646 8.1 8.2335 11.0803 8.2335 14.76C8.2335 18.4397 11.2646 21.42 15.0002 21.42Z" fill="white" stroke="#071C24" stroke-width="0.2"/>
</svg>
