<svg width="27" height="24" viewBox="0 0 27 24" fill="none" xmlns="http://www.w3.org/2000/svg">
<path d="M12.7031 6.79688L15.2344 7.45312C15.4219 7.5 15.5156 7.64062 15.5156 7.82812C15.5156 8.0625 15.3281 8.25 15.0938 8.25H13.4531C13.2656 8.25 13.0781 8.20312 12.9375 8.10938C12.6562 8.01562 12.375 8.0625 12.1875 8.20312L11.2969 9.04688C11.25 9.09375 11.25 9.14062 11.2031 9.1875C11.1562 9.23438 11.1094 9.32812 11.1094 9.42188C11.1094 9.65625 11.25 9.79688 11.3906 9.89062C11.8594 10.1719 12.4219 10.4062 12.9844 10.4531V11.25C12.9844 11.6719 13.3594 12 13.8281 12H14.625C15.0938 12 15.4688 11.6719 15.4688 11.25V10.4531C16.9688 10.2656 18.1406 9 17.9531 7.5C17.8125 6.42188 16.9219 5.57812 15.75 5.25L13.2188 4.59375C13.0312 4.54688 12.9375 4.40625 12.9375 4.21875C12.9375 3.98438 13.125 3.79688 13.3594 3.79688H15C15.1875 3.79688 15.375 3.84375 15.5625 3.9375C15.7969 4.03125 16.0781 3.98438 16.2656 3.84375L17.1562 3C17.2031 2.95312 17.2031 2.90625 17.25 2.85938C17.2969 2.8125 17.3438 2.71875 17.3438 2.625C17.3438 2.39062 17.2031 2.25 17.0625 2.15625C16.5938 1.875 16.0312 1.6875 15.4688 1.59375V0.75C15.4688 0.375 15.0938 0 14.625 0H13.8281C13.3594 0 13.0312 0.375 13.0312 0.75V1.59375C11.4844 1.78125 10.3125 3.04688 10.5 4.54688C10.6406 5.625 11.5781 6.46875 12.7031 6.79688ZM26.4844 15.4219C25.9219 14.9062 25.0781 14.9531 24.4688 15.4219L20.1562 18.8438C19.6406 19.2656 18.9844 19.5 18.2812 19.5H12.75C12.3281 19.5 12 19.1719 12 18.75C12 18.375 12.3281 18 12.75 18H16.4062C17.1562 18 17.8594 17.5312 17.9531 16.7812C17.9531 16.6875 18 16.5938 18 16.5469C18 16.5 18 16.5 18 16.5C17.9531 15.7031 17.2969 15 16.5 15H9C7.64062 15.0469 6.46875 15.4688 5.48438 16.2656L3.32812 18H0.75C0.328125 18 0 18.375 0 18.75V23.25C0 23.6719 0.328125 24 0.75 24H17.4375C18.1406 24 18.7969 23.7656 19.3125 23.3438L26.4375 17.6719C26.7656 17.4375 27 17.0156 27 16.5C27 16.0781 26.7656 15.6562 26.4844 15.4219Z" fill="#778DA9"/>
</svg>
