<svg width="22" height="37" viewBox="0 0 22 37" fill="none" xmlns="http://www.w3.org/2000/svg">
<path d="M15.6953 16.9531L8.10156 14.7031C7.1875 14.4922 6.625 13.6484 6.625 12.7344C6.625 11.6094 7.53906 10.625 8.66406 10.625H13.3047C14.2188 10.625 15.0625 10.9062 15.7656 11.3984C16.1875 11.6797 16.75 11.6094 17.1016 11.2578L19.5625 8.86719C20.0547 8.375 19.9844 7.60156 19.4219 7.10938C17.7344 5.77344 15.5547 5.07031 13.375 5V1.625C13.375 1.0625 12.8125 0.5 12.25 0.5H10C9.36719 0.5 8.875 1.0625 8.875 1.625V5H8.66406C4.16406 5 0.578125 8.86719 1 13.4375C1.28125 16.6719 3.74219 19.3438 6.90625 20.2578L14.0781 22.3672C14.9922 22.5781 15.625 23.4219 15.625 24.3359C15.625 25.4609 14.6406 26.375 13.5156 26.375H8.875C8.03125 26.375 7.1875 26.1641 6.48438 25.6719C5.99219 25.3906 5.42969 25.4609 5.07812 25.8125L2.61719 28.2031C2.125 28.6953 2.19531 29.4688 2.75781 29.8906C4.51562 31.2969 6.625 32 8.875 32V35.375C8.875 36.0078 9.36719 36.5 10 36.5H12.25C12.8125 36.5 13.375 36.0078 13.375 35.375V32C16.6094 31.9297 19.7031 30.0312 20.7578 26.9375C22.3047 22.5781 19.7734 18.1484 15.6953 16.9531Z" fill="#778DA9"/>
</svg>
