<svg width="24" height="24" viewBox="0 0 24 24" fill="none" xmlns="http://www.w3.org/2000/svg">
<path d="M23.625 11.6677C23.625 5.29273 18.375 0.0427322 12 0.0427322C5.57812 0.0427322 0.375 5.29273 0.375 11.6677C0.375 18.0896 5.57812 23.2927 12 23.2927C18.375 23.2927 23.625 18.0896 23.625 11.6677ZM10.6406 17.8552C10.3594 18.1365 9.84375 18.1365 9.5625 17.8552L4.6875 12.9802C4.40625 12.699 4.40625 12.1834 4.6875 11.9021L5.76562 10.8709C6.04688 10.5427 6.51562 10.5427 6.79688 10.8709L10.125 14.1521L17.1562 7.12086C17.4375 6.79273 17.9062 6.79273 18.1875 7.12086L19.2656 8.15211C19.5469 8.43336 19.5469 8.94898 19.2656 9.23023L10.6406 17.8552Z" fill="#778DA9"/>
</svg>
